# Blender v2.79 (sub 0) OBJ File: ''
# www.blender.org
mtllib untitled.mtl
o Circle.001
v 0.000000 0.500000 -5.000000
v -4.330127 0.500000 -2.500000
v -4.330127 0.500000 2.500000
v 0.000000 0.500000 5.000000
v 4.330127 0.500000 2.500000
v 4.330127 0.500000 -2.500000
l 2 1
l 3 2
l 4 3
l 5 4
l 6 5
l 1 6
o Circle
v 0.000000 0.000000 -5.000000
v -4.330127 0.000000 -2.500000
v -4.330127 0.000000 2.500000
v 0.000000 0.000000 5.000000
v 4.330127 0.000000 2.500000
v 4.330127 0.000000 -2.500000
v 0.000000 0.500000 -5.000000
v -4.330127 0.500000 -2.500000
v -4.330127 0.500000 2.500000
v 0.000000 0.500000 5.000000
v 4.330127 0.500000 2.500000
v 4.330127 0.500000 -2.500000
v 0.000000 0.000000 -5.300000
v -4.589934 0.000000 -2.649995
v -4.589934 0.000000 2.649996
v 0.000000 0.000000 5.299991
v 4.589934 0.000000 2.649995
v 4.589934 0.000000 -2.649995
v 0.000000 0.500000 -5.300000
v -4.589934 0.500000 -2.649995
v -4.589934 0.500000 2.649996
v 0.000000 0.500000 5.299991
v 4.589934 0.500000 2.649995
v 4.589934 0.500000 -2.649995
v 0.000000 0.008386 -5.005447
v -4.334845 0.008386 -2.502723
v -4.334844 0.008386 2.502724
v 0.000000 0.008386 5.005447
v 4.334845 0.008386 2.502723
v 4.334845 0.008386 -2.502723
v 0.000000 0.491614 -5.005447
v -4.334845 0.491614 -2.502723
v -4.334844 0.491614 2.502724
v 0.000000 0.491614 5.005447
v 4.334845 0.491614 2.502723
v 4.334845 0.491614 -2.502723
v 0.000000 0.006100 -5.292077
v -4.583072 0.006100 -2.646033
v -4.583072 0.006100 2.646034
v 0.000000 0.006100 5.292067
v 4.583072 0.006100 2.646033
v 4.583072 0.006100 -2.646033
v 0.000000 0.493900 -5.292077
v -4.583072 0.493900 -2.646033
v -4.583072 0.493900 2.646034
v 0.000000 0.493900 5.292067
v 4.583072 0.493900 2.646033
v 4.583072 0.493900 -2.646033
vn 0.5000 0.0000 0.8660
vn 0.5000 0.0000 -0.8660
vn -0.5000 0.0000 -0.8660
vn -1.0000 0.0000 0.0000
vn -0.5000 0.0000 0.8660
vn 1.0000 0.0000 -0.0000
vn 0.0000 -1.0000 0.0000
vn 0.0000 1.0000 0.0000
vn -0.0046 1.0000 -0.0080
vn -0.0092 1.0000 0.0000
vn -0.0046 1.0000 0.0080
vn 0.0046 1.0000 0.0080
vn 0.0092 1.0000 0.0000
vn 0.0046 1.0000 -0.0080
vn -0.0046 -1.0000 -0.0080
vn -0.0092 -1.0000 0.0000
vn -0.0046 -1.0000 0.0080
vn 0.0046 -1.0000 0.0080
vn 0.0092 -1.0000 0.0000
vn 0.0046 -1.0000 -0.0080
usemtl None
s off
f 7//1 13//1 14//1 8//1
f 9//2 15//2 16//2 10//2
f 10//3 16//3 17//3 11//3
f 11//4 17//4 18//4 12//4
f 12//5 18//5 13//5 7//5
f 8//6 14//6 15//6 9//6
f 19//3 20//3 26//3 25//3
f 21//5 22//5 28//5 27//5
f 22//1 23//1 29//1 28//1
f 23//6 24//6 30//6 29//6
f 24//2 19//2 25//2 30//2
f 20//4 21//4 27//4 26//4
f 7//7 8//7 20//7 19//7
f 8//7 9//7 21//7 20//7
f 9//7 10//7 22//7 21//7
f 10//7 11//7 23//7 22//7
f 11//7 12//7 24//7 23//7
f 12//7 7//7 19//7 24//7
f 14//8 13//8 25//8 26//8
f 15//8 14//8 26//8 27//8
f 16//8 15//8 27//8 28//8
f 17//8 16//8 28//8 29//8
f 18//8 17//8 29//8 30//8
f 13//8 18//8 30//8 25//8
f 31//3 32//3 38//3 37//3
f 33//5 34//5 40//5 39//5
f 34//1 35//1 41//1 40//1
f 35//6 36//6 42//6 41//6
f 36//2 31//2 37//2 42//2
f 32//4 33//4 39//4 38//4
f 43//1 49//1 50//1 44//1
f 45//2 51//2 52//2 46//2
f 46//3 52//3 53//3 47//3
f 47//4 53//4 54//4 48//4
f 48//5 54//5 49//5 43//5
f 44//6 50//6 51//6 45//6
f 31//9 43//9 44//9 32//9
f 32//10 44//10 45//10 33//10
f 33//11 45//11 46//11 34//11
f 34//12 46//12 47//12 35//12
f 35//13 47//13 48//13 36//13
f 36//14 48//14 43//14 31//14
f 38//15 50//15 49//15 37//15
f 39//16 51//16 50//16 38//16
f 40//17 52//17 51//17 39//17
f 41//18 53//18 52//18 40//18
f 42//19 54//19 53//19 41//19
f 37//20 49//20 54//20 42//20
